# xmcd CD database file
#
# Track frame offsets:
#	150
#	15063
#	27162
#	42525
#	54864
#	65853
#	77989
#	90090
#	100603
#	117583
#	138405
#	151887
#	167052
#
# Disc length: 2447 seconds
#
# Revision: 0
# Processed by: cddbd v1.5.2PL0 Copyright (c) Steve Scherf et al.
# Submitted via: CDex 1.70beta2
#
DISCID=98098d0d
DTITLE=Farmáři - Řeka
DYEAR=1900
DGENRE=Country
TTITLE0=Country mi hraj
TTITLE1=Holka z jihu
TTITLE2=Už nejsem Tvá gardedáma
TTITLE3=Nedobytnej barák
TTITLE4=Ráno nad řekou
TTITLE5=Promiň, nemáš se ptát
TTITLE6=Jednou smích, jednou pláč
TTITLE7=Ferdinand
TTITLE8=Pro lásku žít
TTITLE9=Co má být
TTITLE10=Večer se vrací k nám
TTITLE11=Starej chlap
TTITLE12=Řeka
EXTD=
EXTT0=
EXTT1=
EXTT2=
EXTT3=
EXTT4=
EXTT5=
EXTT6=
EXTT7=
EXTT8=
EXTT9=
EXTT10=
EXTT11=
EXTT12=
PLAYORDER=
